<svg id="UNSC" xmlns="http://www.w3.org/2000/svg" viewBox="0 0 317.37 462.1"><defs><style>.cls-1{fill:#fff;}</style></defs><g id="Corbulo_UNSC_Logo" data-name="Corbulo UNSC Logo"><path class="cls-1" d="M317,458.64c-3.79,4.67-83.44,17.73-125.9,0,0,0-.1,0-.06.08,1.54,2.08,21.82,28.3,62.4,28.3,40.73,0,62.13-26.41,63.62-28.32C317.13,458.69,317.08,458.6,317,458.64Z" transform="translate(-97.32 -24.95)"/><path class="cls-1" d="M385.77,53c-46,26.9-80.5,61.52-76.83,106.79a3.39,3.39,0,1,1-6.76.52c-3.82-47.68,29.88-82.81,84.61-116.14a.84.84,0,0,0,.39-.7V25.82a.83.83,0,0,0-1.21-.73C278.22,82,266.35,146.16,294.77,191.34a1.31,1.31,0,0,0,1.82.4c5.32-3.42,10.53-6.23,15.48-7.7a11.55,11.55,0,0,1,10.07,1.63c8.18,6,4.81,17.18-9.76,19.53a10.14,10.14,0,0,1-2.64.06c-17-1.75-25.74-10.54-38,1.2h0a.71.71,0,0,1-1.14-.58c.52-23.41,1.43-43.23-20.15-43-22.8,1-21.85,8-22.72,21.61a.44.44,0,0,0,.66.41c11.11-6.3,17.1,7.34,10,21a1.88,1.88,0,0,1-3,.49c-12.18-11.65-20.92-3.08-37.63-1.24a11.87,11.87,0,0,1-3.47-.1c-14.2-2.5-17.42-13.55-9.32-19.45A11.55,11.55,0,0,1,195.11,184c4.95,1.47,10.16,4.28,15.48,7.7a1.31,1.31,0,0,0,1.82-.4C240.84,146.11,229,82,121.22,25a.83.83,0,0,0-1.22.73V43.46a.84.84,0,0,0,.39.7C175.13,77.49,208.82,112.62,205,160.3a3.39,3.39,0,1,1-6.76-.52c3.67-45.27-30.82-79.89-76.82-106.79a1,1,0,0,0-1.42.81V69.19a.94.94,0,0,0,.47.81c36.45,21,62.36,50.26,59.9,90.34a3.33,3.33,0,0,1-2,2.86,3.46,3.46,0,0,1-4.9-3.13c0-39.93-17.55-60.86-52.29-78.75a.83.83,0,0,0-1.21.74V99.5a.83.83,0,0,0,.47.74c21.05,10.18,33.08,22.91,35.09,38.47l1.62,58.37c6,20.91,29.08,29.2,57.64,33.4a3.06,3.06,0,0,1,2.43,2l5.56,14.85a1.09,1.09,0,0,0,.47.56l4.69,2.77a1.1,1.1,0,0,1,.54.86l4.23,57.24a2.19,2.19,0,0,1-1.3,2.16L222.11,315a2.16,2.16,0,0,0-1.28,1.69l-.49,3.42a2.2,2.2,0,0,1-1.1,1.59C188,339,171.86,364.54,171.64,398.77a1.2,1.2,0,0,0,.6,1.05c21.85,12.77,52.21,19.94,79.45,20.32a.39.39,0,0,0,.06-.78c-21.55-3.59-42.78-6.16-41.39-11.48h58.51a13.18,13.18,0,0,1,2.51.24c8,1.51,10.16,5.06,7.74,9.85a.72.72,0,0,0,.83,1l15.81-4.19a.43.43,0,0,0,0-.84c-4.36-.92-6.23-2.72-3.18-5.57,10-.8,19.72-1.45,25.44,0a3.09,3.09,0,0,0,1.73-.05,121.48,121.48,0,0,0,20-9,1.4,1.4,0,0,0,.71-1.27c-1.31-35.39-18.44-63.24-53-78.37a2.36,2.36,0,0,1-1.42-2.16v-1.7a2.38,2.38,0,0,0-1.42-2.17l-8.07-3.52a2.36,2.36,0,0,1-1.42-2.31s3.61-56.41,3.63-56.49a1.1,1.1,0,0,1,.49-.63l4.69-2.77a1,1,0,0,0,.47-.56l5.56-14.85a3.09,3.09,0,0,1,2.43-1.95C320.92,226.33,344,218,350,197.13l1.62-58.37c2-15.56,14-28.29,35.1-38.47a.83.83,0,0,0,.46-.74V82.11a.83.83,0,0,0-1.21-.74c-34.73,17.89-52.31,38.82-52.29,78.75a3.46,3.46,0,0,1-4.9,3.13,3.3,3.3,0,0,1-2-2.86c-2.46-40.08,23.45-69.32,59.89-90.34a.94.94,0,0,0,.47-.81V53.85A.94.94,0,0,0,385.77,53ZM265.22,187.3a1,1,0,0,1,1.9.63l-1.73,18.24a5.39,5.39,0,1,1-9.94-3.29Zm-2.49-10.13c-2.14,4.78-7.37,6.68-13,5.87a2.73,2.73,0,0,1-2.08-3.93l.06-.11a2.75,2.75,0,0,1,3.2-1.42,12.71,12.71,0,0,0,10.72-1.31A.73.73,0,0,1,262.73,177.17Zm-15.91-3c2-4,6.2-4.92,10.82-4.23a2.06,2.06,0,0,1,1.51,3l-.06.12a2.06,2.06,0,0,1-2.43,1c-3.32-1-6.85-1-9.49.46A.26.26,0,0,1,246.82,174.15Zm-15.06,38.56c-6.43-5.48-13.46-7.18-22-4.9a.37.37,0,0,1-.31-.67c9.12-6.17,17.63-5.17,25.65,1.74a2.54,2.54,0,0,1-3.33,3.83ZM210.83,341a34,34,0,0,1,11.51-12.8,2.22,2.22,0,0,1,3.11.73,60,60,0,0,1,5.49,14.14,2.22,2.22,0,0,1-1.87,2.8c-6.31.76-12.24.57-17.28-1.79A2.22,2.22,0,0,1,210.83,341ZM206,350.22a5.78,5.78,0,0,1,6.68-2,38.28,38.28,0,0,0,17,1.43,5.68,5.68,0,0,1,5.62,2.9l2.6,4.62a1.9,1.9,0,0,1-1.54,3l-19.5-.61C206.32,359.7,203,354.61,206,350.22Zm-7.15,18.48,1.23-3.11c.95-2.41,1.41-3.64,3.42-3.75a3.18,3.18,0,0,1,1.71.57c5.82,3.13,21,3,35.45,2.63a4.26,4.26,0,0,1,3.68,2l6.47,8.92a1.67,1.67,0,0,1-1.36,2.66,305.86,305.86,0,0,1-36.15-.12C207,378.41,197.22,374.82,198.85,368.7Zm69.82,34.48-56-1.12c-8.7.16-14.5-4.68-15.85-12l-.41-5.48c-.42-1.84,1.32-4,3-3.16,12.17,5.67,31,1.42,52,2a7.36,7.36,0,0,1,5.47,2.67l13,14.16A1.72,1.72,0,0,1,268.67,403.18ZM331,380l2,9a8.8,8.8,0,0,1-5.06,9.89l-9,3.94-28.55.27A14.42,14.42,0,0,1,279,397.71l-10-11.68a1.91,1.91,0,0,1,1.47-3.15l43.76.59a4.59,4.59,0,0,0,2.21-.53l10.09-5.25A3.23,3.23,0,0,1,331,380Zm-9.11-20a11.21,11.21,0,0,1,2,1.5,7.78,7.78,0,0,1-.93,11.83c-11.21,8.37-24.67,3-57.28,4l-1.8-.62c-2.57-2.22-6.9-8-7.69-10.32a1.94,1.94,0,0,1,1.83-2.54h49.33A32.53,32.53,0,0,0,319.61,360,2.35,2.35,0,0,1,321.91,360Zm-9.14-14.12a14.11,14.11,0,0,1,5.82,7.26,1.84,1.84,0,0,1-.52,2.16c-8.41,6.53-35.1,6-64.08,4.5a1.93,1.93,0,0,1-1.31-.6,18.92,18.92,0,0,1-4.26-6.84,1.92,1.92,0,0,1,1.84-2.48h48.11a32.69,32.69,0,0,0,12.5-4A2,2,0,0,1,312.77,345.88Zm-6-7.66a1.83,1.83,0,0,1,0,2.4c-1.15,1.31-3.82,2.64-7.77,4a1.77,1.77,0,0,1-.79.08c-10.67-1.24-22.06,1.18-28.7-.1a1.81,1.81,0,0,1-.91-3.08C275.57,334.94,299.06,329.32,306.72,338.22Zm-9.07-130.41c-8.55-2.28-15.58-.58-22,4.9a2.54,2.54,0,0,1-3.33-3.83c8-6.91,16.54-7.91,25.65-1.74A.37.37,0,0,1,297.65,207.81Z" transform="translate(-97.32 -24.95)"/><path class="cls-1" d="M353.86,351.9c20.12-7.53,33.24-17,26.18-29.07a5.17,5.17,0,0,0-7.21-1.74c-8.3,5.23-16.12,19.32-28.89,16C343.21,344.25,351.5,344.58,353.86,351.9Z" transform="translate(-97.32 -24.95)"/><path class="cls-1" d="M383,318.86a.79.79,0,0,0-1.09,1.06c17,31.28-45.53,31.16-40.09,54.85a6.61,6.61,0,0,0,7.69,5c17.91-3.42,22.06-19.75,36.79,11.84a.33.33,0,0,0,.63-.19l-1.72-9.57c1.38-13.36,27.24-12.87,29.44-34.17C414.68,339,397,327,383,318.86Z" transform="translate(-97.32 -24.95)"/><path class="cls-1" d="M158.14,351.9c2.36-7.32,10.65-7.65,9.92-14.81-12.77,3.32-20.59-10.77-28.89-16a5.17,5.17,0,0,0-7.21,1.74C124.9,334.91,138,344.37,158.14,351.9Z" transform="translate(-97.32 -24.95)"/><path class="cls-1" d="M126.76,381.84,125,391.41a.33.33,0,0,0,.63.19c14.73-31.59,18.88-15.26,36.79-11.84a6.61,6.61,0,0,0,7.69-5c5.44-23.69-57.05-23.57-40.09-54.85a.79.79,0,0,0-1.09-1.06C115,327,97.32,339,97.32,347.67,99.52,369,125.38,368.48,126.76,381.84Z" transform="translate(-97.32 -24.95)"/><path class="cls-1" d="M345.55,396.86c8.84-5.72,18.47-8.68,25.63-15.36A3.37,3.37,0,0,0,367.5,376c-10.4,4.62-17.38,9.33-25.33,5.23a.27.27,0,0,0-.38.33c1.87,4.76,2.17,9.85,2.14,14.44A1.05,1.05,0,0,0,345.55,396.86Z" transform="translate(-97.32 -24.95)"/><path class="cls-1" d="M169.25,381.2c-7.95,4.1-14.93-.61-25.32-5.23a3.37,3.37,0,0,0-3.69,5.53c7.17,6.68,16.79,9.64,25.64,15.36a1.05,1.05,0,0,0,1.62-.89c0-4.59.26-9.68,2.13-14.44A.27.27,0,0,0,169.25,381.2Z" transform="translate(-97.32 -24.95)"/><path class="cls-1" d="M376.64,379.91c-.53-.82-2.13-.88-2.19.1-.85,5.75-11.25,10.91-25.14,19.12-22.42,13.24-58.07,25.25-93.24,24.63-35.16.62-70.81-11.39-93.23-24.63-13.9-8.21-24.29-13.37-25.14-19.12-.06-1-1.67-.92-2.19-.1a59.84,59.84,0,0,1-14.06,23.51,8.07,8.07,0,0,0-.59,10.39c7.62,10.28,22.29,17.7,34.28,24.27C183.5,453.64,218.61,463,256.07,463s72.57-9.39,100.94-24.95c12-6.57,26.66-14,34.28-24.27a8.07,8.07,0,0,0-.59-10.39A59.84,59.84,0,0,1,376.64,379.91ZM203.05,445.4a4,4,0,0,1-5.11,3.15l-21.24-6.73a4,4,0,0,1-2.65-4.74L178.52,415a1,1,0,0,1,1.31-.73l6.1,2.24a1,1,0,0,1,.63,1.11l-3.77,20.51a1,1,0,0,0,.68,1.12l10.18,3.06a1,1,0,0,0,1.25-.76l3.57-19.27a1,1,0,0,1,1.26-.76l6,1.86a1,1,0,0,1,.69,1.1Zm43.61,10.48h-7a.41.41,0,0,1-.33-.15L226.76,440a.41.41,0,0,0-.73.23l-.73,13.58a.43.43,0,0,1-.48.39l-8.43-1.33a.41.41,0,0,1-.34-.46l2.67-25.66a.42.42,0,0,1,.49-.37l7.37,1.36a.35.35,0,0,1,.25.16l11.42,15.43a.41.41,0,0,0,.75-.24l.09-12.94a.41.41,0,0,1,.44-.41l7.94.44a.41.41,0,0,1,.39.43l-.79,24.88A.4.4,0,0,1,246.66,455.88Zm46-1.85-30.09,2.55a.76.76,0,0,1-.86-.71l-.91-7.2a.75.75,0,0,1,.73-.79l7.61-.07a.76.76,0,0,1,.78.57l.62,2.73a.77.77,0,0,0,.81.56l11.9-.41a.76.76,0,0,0,.71-.76l0-3a.76.76,0,0,0-.53-.7l-21.24-6.6a2,2,0,0,1-1.43-1.88l-.21-5.89a1.87,1.87,0,0,1,1.67-1.93l26.56-2.73a.76.76,0,0,1,.83.65l.81,6.54a.73.73,0,0,1-.62.83l-7.52,1.2a.75.75,0,0,1-.87-.7l-.11-2.43a.76.76,0,0,0-.84-.71l-10.8,1.24a.75.75,0,0,0-.66.74v1.39a.74.74,0,0,0,.54.72L292.27,444a.74.74,0,0,1,.53.67l.58,8.52A.77.77,0,0,1,292.7,454Zm41.77-12.14-23,7.57a3.27,3.27,0,0,1-4.22-2.38l-4.4-19.17a3.29,3.29,0,0,1,2.1-3.83l20.25-7.18A3.78,3.78,0,0,1,330,419l1.8,4.16a.91.91,0,0,1-.52,1.2l-6.62,2.35a.89.89,0,0,1-1.17-.63l-.56-2.34a.89.89,0,0,0-1.16-.64l-9,3.15a.91.91,0,0,0-.58,1l3.45,15.91a.89.89,0,0,0,1.14.66l10-3.17a.9.9,0,0,0,.56-1.18l-1.07-2.79a.9.9,0,0,1,.55-1.17l6.39-2.11a.88.88,0,0,1,1.1.49l1.83,4.16A2.83,2.83,0,0,1,334.47,441.89Z" transform="translate(-97.32 -24.95)"/><path class="cls-1" d="M131.92,150.12a14.31,14.31,0,1,0-14.31-14.31A14.31,14.31,0,0,0,131.92,150.12Zm0-20.57a6.26,6.26,0,1,1-6.26,6.26A6.26,6.26,0,0,1,131.92,129.55Z" transform="translate(-97.32 -24.95)"/><path class="cls-1" d="M143.77,174.58a4.39,4.39,0,0,0,4.45-4l.37-3.94a4.38,4.38,0,0,0-4.51-4.76c-12.84.36-20.55-3.59-28.88-13.53a1,1,0,0,0-1.79.76C115.91,167.73,126.79,174.33,143.77,174.58Z" transform="translate(-97.32 -24.95)"/><path class="cls-1" d="M145.56,191.91a3.15,3.15,0,0,0,2.93-2.38,15.93,15.93,0,0,0,.32-6.3,3.14,3.14,0,0,0-3.39-2.53c-14.93,1.37-25.53-1.64-34.6-12.75a.69.69,0,0,0-1.19.64C115.17,187,126.79,193,145.56,191.91Z" transform="translate(-97.32 -24.95)"/><path class="cls-1" d="M151.65,202.45a12,12,0,0,0-.86-4.58,3.27,3.27,0,0,0-3.67-2c-11.88,2.23-22.67,7.06-30.47,14a1.76,1.76,0,0,0,.71,3c9.72,2.69,21.41-1.2,32.68-7.79A3.19,3.19,0,0,0,151.65,202.45Z" transform="translate(-97.32 -24.95)"/><path class="cls-1" d="M131.7,237.48c6.7-3.25,14.74-10.37,23.56-21.9a3.62,3.62,0,0,0,.77-2.34,5.31,5.31,0,0,0-1.22-3.25,3.67,3.67,0,0,0-4.69-.68,43.11,43.11,0,0,0-19.74,27.1A.94.94,0,0,0,131.7,237.48Z" transform="translate(-97.32 -24.95)"/><path class="cls-1" d="M154.47,251.15a.61.61,0,0,0,1.16,0c3.62-10.46,7.24-20.75,10.59-26.81a2.75,2.75,0,0,0-.32-3.13,23.87,23.87,0,0,0-5.29-4.64,2.74,2.74,0,0,0-3.84,1C150.56,229.08,151.37,240.78,154.47,251.15Z" transform="translate(-97.32 -24.95)"/><path class="cls-1" d="M181.31,257.71l-1.15-28.85a1.51,1.51,0,0,0-.74-1.24l-7-4.15a1.52,1.52,0,0,0-2.27,1c-2.75,14.09,2.09,26,10.38,33.58A.45.45,0,0,0,181.31,257.71Z" transform="translate(-97.32 -24.95)"/><path class="cls-1" d="M198.49,257.67l-2.68-23.78a1.39,1.39,0,0,0-.56-1c-2-1.38-4.82-1.87-8.07-1.94a1.44,1.44,0,0,0-1.48,1.4c-.31,15.15,4.62,23,11.52,26.22A.9.9,0,0,0,198.49,257.67Z" transform="translate(-97.32 -24.95)"/><path class="cls-1" d="M217.41,257.74c-4.57-4.3-7.79-11.92-8.48-21.16a.59.59,0,0,0-.27-.46,9.66,9.66,0,0,0-8.53-.58.64.64,0,0,0-.4.69c2.76,17.62,8.69,22.17,17.24,22.54A.6.6,0,0,0,217.41,257.74Z" transform="translate(-97.32 -24.95)"/><path class="cls-1" d="M373.1,121.5a14.31,14.31,0,1,0,14.31,14.31A14.31,14.31,0,0,0,373.1,121.5Zm0,20.57a6.26,6.26,0,1,1,6.26-6.26A6.27,6.27,0,0,1,373.1,142.07Z" transform="translate(-97.32 -24.95)"/><path class="cls-1" d="M360.38,161.92a4.38,4.38,0,0,0-4.51,4.76l.37,3.94a4.38,4.38,0,0,0,4.44,4c17-.25,27.86-6.85,30.36-25.43a1,1,0,0,0-1.78-.76C380.93,158.33,373.22,162.28,360.38,161.92Z" transform="translate(-97.32 -24.95)"/><path class="cls-1" d="M359,180.7a3.16,3.16,0,0,0-3.39,2.53,15.93,15.93,0,0,0,.32,6.3,3.17,3.17,0,0,0,2.94,2.38c18.77,1.06,30.38-4.89,35.93-23.32a.69.69,0,0,0-1.19-.64C384.57,179.06,374,182.07,359,180.7Z" transform="translate(-97.32 -24.95)"/><path class="cls-1" d="M387.81,209.89c-7.8-6.92-18.59-11.75-30.47-14a3.25,3.25,0,0,0-3.67,2,12,12,0,0,0-.86,4.58,3.15,3.15,0,0,0,1.6,2.66c11.28,6.59,23,10.48,32.69,7.79A1.76,1.76,0,0,0,387.81,209.89Z" transform="translate(-97.32 -24.95)"/><path class="cls-1" d="M372.76,237.48a.94.94,0,0,0,1.32-1.07,43.11,43.11,0,0,0-19.74-27.1,3.69,3.69,0,0,0-4.7.68,5.36,5.36,0,0,0-1.21,3.25,3.57,3.57,0,0,0,.77,2.34C358,227.11,366.05,234.23,372.76,237.48Z" transform="translate(-97.32 -24.95)"/><path class="cls-1" d="M343.85,216.6a23.7,23.7,0,0,0-5.3,4.64,2.77,2.77,0,0,0-.32,3.13c3.36,6.06,7,16.35,10.6,26.81a.61.61,0,0,0,1.16,0c3.1-10.37,3.91-22.07-2.31-33.52A2.73,2.73,0,0,0,343.85,216.6Z" transform="translate(-97.32 -24.95)"/><path class="cls-1" d="M332,223.47l-7,4.15a1.51,1.51,0,0,0-.74,1.24l-1.14,28.85a.45.45,0,0,0,.75.36c8.29-7.61,13.12-19.49,10.38-33.58A1.52,1.52,0,0,0,332,223.47Z" transform="translate(-97.32 -24.95)"/><path class="cls-1" d="M309.21,232.91a1.33,1.33,0,0,0-.56,1L306,257.67a.91.91,0,0,0,1.28.92c6.89-3.25,11.83-11.07,11.52-26.22a1.45,1.45,0,0,0-1.48-1.4C314,231,311.19,231.53,309.21,232.91Z" transform="translate(-97.32 -24.95)"/><path class="cls-1" d="M295.8,236.12a.59.59,0,0,0-.27.46c-.69,9.24-3.91,16.86-8.48,21.16a.6.6,0,0,0,.43,1c8.56-.37,14.49-4.92,17.24-22.54a.62.62,0,0,0-.39-.69A9.66,9.66,0,0,0,295.8,236.12Z" transform="translate(-97.32 -24.95)"/></g></svg>